<svg width="40" height="40" viewBox="0 0 40 40" fill="none" xmlns="http://www.w3.org/2000/svg">
  <path fill-rule="evenodd" clip-rule="evenodd" d="M20 0C31.0469 0 40 8.95312 40 20C40 31.0469 31.0469 40 20 40C8.95312 40 0 31.0469 0 20C0 8.95312 8.95312 0 20 0Z" fill="url(#paint0_radial_2762_22235)" />
  <path d="M12.7105 15.4453C16.7339 11.5156 23.2651 11.5156 27.2886 15.4453L27.773 15.9219C27.9761 16.1172 27.9761 16.4375 27.773 16.6328L26.1167 18.25C26.0151 18.3516 25.8511 18.3516 25.7495 18.25L25.0855 17.6016C22.273 14.8594 17.7261 14.8594 14.9136 17.6016L14.2026 18.2969C14.1011 18.3984 13.937 18.3984 13.8355 18.2969L12.1792 16.6797C11.9761 16.4844 11.9761 16.1641 12.1792 15.9688L12.7105 15.4453ZM30.7183 18.7891L32.1948 20.2266C32.398 20.4219 32.398 20.7422 32.1948 20.9375L25.5464 27.4297C25.3433 27.625 25.0151 27.625 24.8198 27.4297L20.1011 22.8203C20.0542 22.7734 19.9683 22.7734 19.9214 22.8203L15.2026 27.4297C14.9995 27.625 14.6714 27.625 14.4761 27.4297L7.8042 20.9375C7.60107 20.7422 7.60107 20.4219 7.8042 20.2266L9.28076 18.7891C9.48389 18.5938 9.81201 18.5938 10.0073 18.7891L14.7261 23.3984C14.773 23.4453 14.8589 23.4453 14.9058 23.3984L19.6245 18.7891C19.8276 18.5938 20.1558 18.5938 20.3511 18.7891L25.0698 23.3984C25.1167 23.4453 25.2026 23.4453 25.2495 23.3984L29.9683 18.7891C30.187 18.5938 30.5151 18.5938 30.7183 18.7891Z" fill="white" />
  <defs>
    <radialGradient id="paint0_radial_2762_22235" cx="0" cy="0" r="1" gradientUnits="userSpaceOnUse" gradientTransform="translate(0.000123978 20.0006) scale(40)">
      <stop stop-color="#5D9DF6" />
      <stop offset="1" stop-color="#006FFF" />
    </radialGradient>
  </defs>
</svg>
  